<svg id="圖層_1" data-name="圖層 1" xmlns="http://www.w3.org/2000/svg" viewBox="0 0 230 23.09"><defs><style>.cls-1{fill:#b0915b;}</style></defs><title>service-option-hover</title><path class="cls-1" d="M0,7.24v8.61a2.92,2.92,0,0,0,1.47,2.54L8.92,22.7a3,3,0,0,0,2.94,0l7.45-4.31a2.92,2.92,0,0,0,1.47-2.54V7.24A2.92,2.92,0,0,0,19.31,4.7L11.86.39a3,3,0,0,0-2.94,0L1.47,4.7A2.92,2.92,0,0,0,0,7.24Z"/><path class="cls-1" d="M209.22,7.24v8.61a2.92,2.92,0,0,0,1.47,2.54l7.45,4.31a3,3,0,0,0,2.94,0l7.45-4.31A2.92,2.92,0,0,0,230,15.85V7.24a2.92,2.92,0,0,0-1.47-2.54L221.08.39a3,3,0,0,0-2.94,0L210.69,4.7A2.92,2.92,0,0,0,209.22,7.24Z"/></svg>